<svg width="30" height="24" viewBox="0 0 30 24" fill="none" xmlns="http://www.w3.org/2000/svg">
<path d="M1.35734 1L3.91208 1.22174L4.86781 1.31326L6.04409 4.26448L20.3065 5.17128L28.6692 5.68238L29 6.04511L28.8804 6.50675L28.3935 8.3863L28.3462 8.53468L27.3432 11.6838L26.9966 12.7719L26.5647 14.0991L26.1328 15.4264L25.949 15.5912L25.0484 15.6489L21.5012 15.8715L15.3073 16.4486L14.3717 17.6192L13.1937 18.9711H22.2731C25.3696 19.6 24.3948 22.7703 22.1996 22.994C20.8574 23.0814 19.3508 22.2167 20.0125 20.0098H9.27887C9.93691 22.1109 8.99545 22.5965 7.55121 22.994C5.79571 23.015 4.43575 21.8127 5.36405 20.0098C5.99052 19.2107 6.56359 19.0192 7.88204 19.0206C8.81812 18.2118 9.1509 17.6616 9.18698 16.3991L6.04409 7.64437L4.33481 3.17632L1.35734 2.78063C0.949612 2.32329 0.816769 1.5708 1.35734 1Z" fill="#0CA7FF"/>
<path d="M29 6.04511L28.6692 5.68238C25.4034 5.48279 20.3065 5.17128 20.3065 5.17128L6.04409 4.26448L4.86781 1.31326L3.91208 1.22174L1.35734 1C0.816769 1.5708 0.949612 2.32329 1.35734 2.78063L4.33481 3.17632L6.04409 7.64437L9.18698 16.3991C9.1509 17.6616 8.81812 18.2118 7.88204 19.0206C6.56359 19.0192 5.99052 19.2107 5.36405 20.0098C4.43575 21.8127 5.79571 23.015 7.55121 22.994C8.99545 22.5965 9.93691 22.1109 9.27887 20.0098H20.0125C19.3508 22.2167 20.8574 23.0814 22.1996 22.994C24.3948 22.7703 25.3696 19.6 22.2731 18.9711C18.7274 18.9711 13.1937 18.9711 13.1937 18.9711L14.3717 17.6192L15.3073 16.4486L21.5012 15.8715L25.0484 15.6489M29 6.04511L28.8804 6.50675L28.3462 8.53468M29 6.04511L28.3935 8.3863L28.3462 8.53468M25.6182 15.5912H25.949M25.949 15.5912L26.1328 15.4264L26.5647 14.0991M25.949 15.5912L25.0484 15.6489M24.1478 15.7066L25.0484 15.6489M28.3462 8.53468L27.3432 11.6838M27.3432 11.6838L26.9966 12.7719L26.5647 14.0991M27.3432 11.6838L26.5647 14.0991" stroke="#0CA7FF" stroke-width="0.5"/>
<path d="M13.9552 16.5117L10.4815 16.7755C10.3943 17.8467 10.0806 18.2692 9.5625 19.0508H11.235C12.1528 18.6547 12.7958 18.0922 13.9552 16.5117Z" fill="black" stroke="black" stroke-width="0.5"/>
<path d="M7.37077 20.0743C8.85525 20.0889 8.82284 22.0395 7.37077 22.0528C5.9187 22.066 5.88629 20.0597 7.37077 20.0743Z" fill="black" stroke="black" stroke-width="0.5"/>
<path d="M22.1091 20.0704C23.5935 20.085 23.5611 22.0356 22.1091 22.0489C20.657 22.0621 20.6246 20.0558 22.1091 20.0704Z" fill="black" stroke="black" stroke-width="0.5"/>
<path d="M7.60231 8.36615L6.53125 5.39844L9.78136 5.61277L10.4277 8.36615H7.60231Z" fill="black" stroke="#020203" stroke-width="0.5"/>
<path d="M11.6578 8.41658L10.9961 5.67969L14.672 5.89402L15.0028 8.41658H11.6578Z" fill="black" stroke="black" stroke-width="0.5"/>
<path d="M16.1992 8.5156L15.8867 5.97656L19.7648 6.1909L19.6361 8.5156H16.1992Z" fill="black" stroke="black" stroke-width="0.5"/>
<path d="M20.8086 8.51398L20.9189 6.30469L24.3558 6.48605L23.9515 8.61291L20.8086 8.51398Z" fill="black" stroke="black" stroke-width="0.5"/>
<path d="M25.1094 8.64685L25.4953 6.58594L27.8847 6.73432L27.2781 8.64685H25.1094Z" fill="black" stroke="black" stroke-width="0.5"/>
<path d="M9.01317 12.275L8.03906 9.40625H10.7408L11.4576 12.1431L9.01317 12.275Z" fill="black" stroke="black" stroke-width="0.5"/>
<path d="M12.6277 12.157L11.9844 9.45312H15.1456L15.4581 12.0087L12.6277 12.157Z" fill="black" stroke="#020203" stroke-width="0.5"/>
<path d="M16.6367 12.013L16.3242 9.52344L19.5958 9.58939L19.5222 11.9141L16.6367 12.013Z" fill="black" stroke="#020203" stroke-width="0.5"/>
<path d="M20.6055 11.8629L20.7525 9.55469L23.73 9.63712L23.2705 11.797L20.6055 11.8629Z" fill="black" stroke="#020203" stroke-width="0.5"/>
<path d="M24.4688 11.7306L24.8915 9.63672L26.95 9.70267L26.2516 11.7306H24.4688Z" fill="black" stroke="black" stroke-width="0.5"/>
<path d="M10.3135 15.7344L9.39453 13.2942L11.7103 13.1953L12.3169 15.6025L10.3135 15.7344Z" fill="black" stroke="#020203" stroke-width="0.5"/>
<path d="M13.4788 15.4909L12.8906 13.1662L15.6475 13.0508L15.96 15.326L13.4788 15.4909Z" fill="black" stroke="#020203" stroke-width="0.5"/>
<path d="M17.0988 15.2253L16.8047 12.9995L19.4329 12.9336L19.341 15.0769L17.0988 15.2253Z" fill="black" stroke="black" stroke-width="0.5"/>
<path d="M20.4609 14.9619L20.5896 12.8516H23.0708L22.6848 14.8135L20.4609 14.9619Z" fill="black" stroke="black" stroke-width="0.5"/>
<path d="M23.8633 14.715L24.2676 12.7695H25.9218L25.352 14.6161L23.8633 14.715Z" fill="black" stroke="black" stroke-width="0.5"/>
</svg>