<svg width="67" height="37" viewBox="0 0 67 37" fill="none" xmlns="http://www.w3.org/2000/svg">
<path d="M6.40148 0H60.2652C61.963 0 63.5912 0.673765 64.7917 1.87308C65.9922 3.07239 66.6667 4.699 66.6667 6.39508V30.6049C66.6667 32.301 65.9922 33.9276 64.7917 35.1269C63.5912 36.3262 61.963 37 60.2652 37H6.40148C4.70371 37 3.07546 36.3262 1.87495 35.1269C0.674443 33.9276 1.93087e-06 32.301 0 30.6049L0 6.39508C-3.18689e-07 5.55527 0.165579 4.72368 0.487283 3.94779C0.808988 3.1719 1.28052 2.46692 1.87495 1.87308C2.46938 1.27924 3.17508 0.80818 3.95174 0.486797C4.7284 0.165414 5.56083 0 6.40148 0V0Z" fill="#FFB3C7"/>
<path d="M60.4346 21.6772C60.1188 21.6744 59.8093 21.7654 59.5454 21.9386C59.2814 22.1118 59.0749 22.3594 58.9521 22.6501C58.8293 22.9408 58.7957 23.2613 58.8556 23.5711C58.9154 23.8809 59.0661 24.1659 59.2884 24.39C59.5107 24.6141 59.7947 24.7671 60.1042 24.8297C60.4137 24.8923 60.7349 24.8616 61.0269 24.7415C61.319 24.6214 61.5687 24.4174 61.7445 24.1553C61.9202 23.8931 62.014 23.5847 62.014 23.2692C62.015 23.0611 61.9749 22.8548 61.896 22.6622C61.8172 22.4695 61.7011 22.2943 61.5544 22.1464C61.4077 21.9986 61.2334 21.8811 61.0412 21.8006C60.8491 21.72 60.643 21.6781 60.4346 21.6772V21.6772ZM55.2386 20.4464C55.2586 19.9916 55.1419 19.5413 54.9035 19.1534C54.6651 18.7655 54.316 18.4578 53.901 18.2698C53.486 18.0819 53.0242 18.0223 52.5751 18.0989C52.1259 18.1754 51.71 18.3845 51.3808 18.6992C51.0516 19.0139 50.8243 19.4198 50.7281 19.8648C50.6318 20.3097 50.6711 20.7732 50.8408 21.1956C51.0106 21.618 51.303 21.98 51.6805 22.2349C52.0579 22.4899 52.5031 22.6261 52.9588 22.6261C53.5504 22.6389 54.1228 22.4164 54.5504 22.0077C54.9779 21.5989 55.2254 21.0374 55.2386 20.4464V20.4464ZM55.2471 16.2103H57.7632V24.6821H55.2471V24.1407C54.5139 24.6466 53.6438 24.9173 52.7527 24.9166C51.573 24.9059 50.4452 24.4303 49.6148 23.5931C48.7843 22.7559 48.3184 21.625 48.3184 20.4464C48.3184 19.2678 48.7843 18.1369 49.6148 17.2997C50.4452 16.4625 51.573 15.9868 52.7527 15.9761C53.6438 15.9755 54.5139 16.2462 55.2471 16.7522V16.2103V16.2103ZM35.1108 17.3138V16.2104H32.5346V24.6821H35.1166V20.7268C35.1166 19.3923 36.5514 18.6751 37.5469 18.6751C37.5571 18.6751 37.5667 18.676 37.5768 18.6762V16.2111C37.1094 16.199 36.6452 16.2918 36.2184 16.4827C35.7916 16.6735 35.4131 16.9576 35.1108 17.314L35.1108 17.3138ZM28.6936 20.4464C28.7136 19.9916 28.5969 19.5413 28.3586 19.1534C28.1202 18.7654 27.771 18.4577 27.356 18.2697C26.941 18.0818 26.4792 18.0222 26.03 18.0987C25.5809 18.1752 25.1649 18.3843 24.8357 18.699C24.5065 19.0137 24.2792 19.4197 24.1829 19.8646C24.0867 20.3095 24.1259 20.7731 24.2957 21.1955C24.4654 21.6179 24.7578 21.9799 25.1353 22.2349C25.5127 22.4899 25.958 22.6261 26.4136 22.6261C27.0052 22.6389 27.5777 22.4164 28.0053 22.0077C28.4328 21.599 28.6804 21.0374 28.6936 20.4464H28.6936ZM28.7019 16.2103H31.2182V24.6821H28.7019V24.1407C27.9688 24.6466 27.0987 24.9173 26.2077 24.9167C25.0279 24.906 23.9001 24.4304 23.0696 23.5932C22.2391 22.756 21.7731 21.6251 21.7731 20.4464C21.7731 19.2678 22.2391 18.1368 23.0696 17.2996C23.9001 16.4624 25.0279 15.9868 26.2077 15.9761C27.0988 15.9755 27.9688 16.2463 28.7019 16.7523V16.2103H28.7019ZM43.8471 15.9825C42.842 15.9825 41.8907 16.297 41.2547 17.1649V16.2108H38.7493V24.6822H41.2855V20.2302C41.2855 18.9419 42.1425 18.3111 43.1744 18.3111C44.2802 18.3111 44.916 18.977 44.916 20.2128V24.6822H47.4292V19.2949C47.4292 17.3233 45.8742 15.9826 43.8471 15.9826L43.8471 15.9825ZM18.1079 24.6822H20.7415V12.4351H18.1079V24.6822ZM6.53882 24.6855H9.32756V12.4328H6.53882V24.6855ZM16.2929 12.4328C16.2993 13.7225 16.0506 15.0008 15.561 16.1943C15.0715 17.3877 14.3507 18.4728 13.4402 19.3871L17.295 24.686H13.8505L9.66119 18.9273L10.7424 18.1111C11.6234 17.45 12.3374 16.5922 12.8273 15.6062C13.3172 14.6202 13.5694 13.5335 13.5639 12.4327H16.2929L16.2929 12.4328Z" fill="#0A0B09"/>
</svg>
