<svg width="72" height="47" viewBox="0 0 72 47" fill="none" xmlns="http://www.w3.org/2000/svg">
<path d="M61.4568 0H9.87104C4.41941 0 0 4.08583 0 9.12595V37.3117C0 42.3518 4.41941 46.4376 9.87104 46.4376H61.4568C66.9084 46.4376 71.3278 42.3518 71.3278 37.3117V9.12595C71.3278 4.08583 66.9084 0 61.4568 0Z" fill="#36495D"/>
<path d="M41.6556 13.2649H29.6724V33.1735H41.6556V13.2649Z" fill="#F16522"/>
<path d="M30.4336 23.2186C30.4318 21.3012 30.9018 19.4087 31.8081 17.6841C32.7143 15.9595 34.033 14.4481 35.6644 13.2643C33.6441 11.796 31.2177 10.8829 28.6626 10.6293C26.1075 10.3758 23.5268 10.7919 21.2154 11.8302C18.904 12.8685 16.9552 14.4871 15.5918 16.501C14.2284 18.5149 13.5054 20.8428 13.5054 23.2186C13.5054 25.5944 14.2284 27.9223 15.5918 29.9362C16.9552 31.95 18.904 33.5686 21.2154 34.607C23.5268 35.6453 26.1075 36.0614 28.6626 35.8078C31.2177 35.5542 33.6441 34.6411 35.6644 33.1729C34.033 31.9891 32.7143 30.4777 31.8081 28.7531C30.9018 27.0285 30.4318 25.1359 30.4336 23.2186" fill="#E41B24"/>
<path d="M57.8221 23.2178C57.8223 25.5935 57.0995 27.9213 55.7363 29.9352C54.3731 31.9491 52.4245 33.5677 50.1132 34.6061C47.802 35.6444 45.2214 36.0606 42.6664 35.807C40.1113 35.5534 37.685 34.6403 35.6649 33.1721C37.2947 31.987 38.6122 30.4753 39.5181 28.751C40.4241 27.0267 40.8948 25.1347 40.8948 23.2178C40.8948 21.3008 40.4241 19.4088 39.5181 17.6845C38.6122 15.9602 37.2947 14.4485 35.6649 13.2635C37.6851 11.7955 40.1114 10.8827 42.6663 10.6293C45.2212 10.3758 47.8017 10.7921 50.1128 11.8304C52.4239 12.8686 54.3725 14.4871 55.7358 16.5008C57.099 18.5145 57.822 20.8422 57.8221 23.2178L57.8221 23.2178ZM56.5155 31.0638V30.6563H56.6934V30.5736H56.2402V30.6562H56.4181V31.0638L56.5155 31.0638ZM57.3946 31.0638V30.5728H57.2555L57.0962 30.9108L56.9369 30.5728H56.7979V31.0638H56.8953V30.6931L57.0449 31.0131H57.1467L57.2963 30.6923V31.0638L57.3946 31.0638Z" fill="#F89E1C"/>
</svg>