
<svg width="71" height="47" viewBox="0 0 71 47" fill="none" xmlns="http://www.w3.org/2000/svg">
<path d="M60.9396 0H9.78797C4.38222 0 0 4.05144 0 9.04916V36.9977C0 41.9954 4.38222 46.0469 9.78797 46.0469H60.9396C66.3454 46.0469 70.7276 41.9954 70.7276 36.9977V9.04916C70.7276 4.05144 66.3454 0 60.9396 0Z" fill="#253B80"/>
<path d="M16.9834 20.2579C16.7726 21.5362 15.7162 21.5362 14.6948 21.5362H14.1133L14.5212 19.149C14.5331 19.0791 14.5717 19.0155 14.6298 18.9695C14.688 18.9236 14.7619 18.8984 14.8384 18.8984H15.1049C15.8008 18.8984 16.4571 18.8984 16.7963 19.2651C16.9044 19.4078 16.9771 19.5707 17.0094 19.7423C17.0418 19.9138 17.0329 20.0899 16.9834 20.2579V20.2579ZM16.5388 16.9216H12.6856C12.5581 16.9216 12.4347 16.9636 12.3377 17.0402C12.2407 17.1168 12.1765 17.2229 12.1566 17.3394L10.5981 26.4743C10.5909 26.5167 10.5937 26.56 10.6064 26.6013C10.6191 26.6426 10.6413 26.6808 10.6715 26.7134C10.7017 26.746 10.7392 26.7721 10.7814 26.79C10.8236 26.8079 10.8695 26.8171 10.9159 26.817H12.7555C12.8831 26.817 13.0066 26.7749 13.1036 26.6982C13.2006 26.6215 13.2647 26.5153 13.2845 26.3987L13.7048 23.9349C13.7245 23.8184 13.7885 23.7122 13.8854 23.6355C13.9824 23.5588 14.1057 23.5166 14.2333 23.5166H15.4531C17.9913 23.5166 19.4562 22.3811 19.8388 20.1308C20.0112 19.1463 19.8461 18.3728 19.3475 17.8311C18.7998 17.2363 17.8285 16.9216 16.5388 16.9216Z" fill="white"/>
<path d="M25.4843 23.5375C25.4124 23.9973 25.161 24.4168 24.7774 24.7169C24.3939 25.0169 23.9048 25.1768 23.4024 25.1663C23.1717 25.1886 22.9385 25.1586 22.7231 25.079C22.5076 24.9993 22.3164 24.8723 22.1659 24.709C22.0155 24.5458 21.9102 24.3511 21.8593 24.1418C21.8085 23.9325 21.8135 23.7149 21.8739 23.5078C21.9442 23.0487 22.1927 22.6289 22.5732 22.3268C22.9537 22.0247 23.4401 21.8609 23.9416 21.866C24.1711 21.8546 24.4004 21.8904 24.6132 21.9707C24.8259 22.0511 25.0168 22.1739 25.1721 22.3306C25.3158 22.4987 25.4181 22.6938 25.472 22.9022C25.5259 23.1107 25.5301 23.3274 25.4843 23.5375V23.5375ZM28.0563 20.2174H26.2111C26.1346 20.2174 26.0607 20.2427 26.0025 20.2886C25.9444 20.3345 25.9059 20.3981 25.8939 20.4679L25.8122 20.945L25.6831 20.7721C25.2837 20.2361 24.3929 20.0569 23.5039 20.0569C21.4649 20.0569 19.7233 21.4847 19.3842 23.4875C19.287 23.9443 19.2982 24.4151 19.4168 24.8675C19.5355 25.3199 19.7589 25.7431 20.0715 26.108C20.6338 26.7206 21.4384 26.9758 22.3956 26.9758C22.8705 26.9802 23.3414 26.896 23.7803 26.7282C24.2191 26.5604 24.6168 26.3124 24.9496 25.9992L24.8673 26.4732C24.86 26.5156 24.8627 26.559 24.8752 26.6003C24.8877 26.6416 24.9098 26.68 24.9399 26.7126C24.97 26.7453 25.0074 26.7716 25.0495 26.7896C25.0917 26.8076 25.1375 26.817 25.184 26.817H26.8461C26.9737 26.817 27.0971 26.7749 27.1941 26.6982C27.2911 26.6215 27.3553 26.5153 27.3751 26.3987L28.3723 20.5601C28.3797 20.5178 28.377 20.4745 28.3645 20.4333C28.352 20.392 28.33 20.3538 28.3 20.3212C28.2699 20.2886 28.2325 20.2624 28.1905 20.2445C28.1484 20.2266 28.1026 20.2173 28.0563 20.2174V20.2174Z" fill="white"/>
<path d="M37.883 20.2175H36.0288C35.9413 20.2176 35.8552 20.2375 35.778 20.2753C35.7007 20.3132 35.6346 20.3679 35.5854 20.4347L33.028 23.9174L31.944 20.5707C31.9107 20.4686 31.8428 20.3792 31.7502 20.3156C31.6577 20.252 31.5455 20.2176 31.4302 20.2175H29.6081C29.5569 20.2174 29.5065 20.2286 29.461 20.2502C29.4155 20.2717 29.3762 20.303 29.3464 20.3414C29.3166 20.3798 29.2971 20.4242 29.2896 20.471C29.2821 20.5178 29.2868 20.5655 29.3032 20.6103L31.3456 26.1515L29.4255 28.6575C29.3914 28.7019 29.3711 28.7542 29.3669 28.8086C29.3628 28.8629 29.3749 28.9173 29.4019 28.9657C29.429 29.0142 29.47 29.0548 29.5203 29.0831C29.5707 29.1114 29.6285 29.1264 29.6875 29.1263H31.5395C31.6259 29.1264 31.7111 29.1072 31.7878 29.0701C31.8644 29.0331 31.9302 28.9795 31.9795 28.9138L38.1467 20.6837C38.1801 20.6392 38.1998 20.5871 38.2035 20.533C38.2072 20.4789 38.1948 20.4248 38.1676 20.3768C38.1404 20.3287 38.0995 20.2885 38.0493 20.2604C37.9992 20.2323 37.9416 20.2175 37.883 20.2175V20.2175Z" fill="white"/>
<path d="M44.467 20.2579C44.2569 21.5362 43.2004 21.5362 42.1784 21.5362H41.5975L42.006 19.149C42.0177 19.0791 42.0561 19.0154 42.1142 18.9695C42.1722 18.9235 42.2462 18.8983 42.3227 18.8984H42.5892C43.2844 18.8984 43.9413 18.8984 44.2805 19.2651C44.3885 19.4078 44.4611 19.5707 44.4934 19.7423C44.5256 19.9139 44.5166 20.0899 44.467 20.2579V20.2579ZM44.0225 16.9216H40.1687C40.0413 16.9217 39.918 16.9638 39.8211 17.0404C39.7242 17.117 39.6601 17.223 39.6402 17.3394L38.0818 26.4743C38.0746 26.5166 38.0773 26.5598 38.0899 26.6011C38.1025 26.6423 38.1246 26.6805 38.1547 26.7131C38.1848 26.7457 38.2222 26.7718 38.2643 26.7898C38.3063 26.8077 38.3521 26.817 38.3985 26.817H40.3761C40.4653 26.8169 40.5515 26.7873 40.6193 26.7337C40.687 26.68 40.7318 26.6058 40.7457 26.5243L41.1879 23.9349C41.2076 23.8184 41.2716 23.7122 41.3685 23.6355C41.4655 23.5588 41.5889 23.5166 41.7164 23.5166H42.9357C45.4744 23.5166 46.9387 22.3811 47.3219 20.1308C47.4948 19.1464 47.3286 18.3728 46.83 17.8311C46.2829 17.2363 45.3121 16.9216 44.0225 16.9216Z" fill="white"/>
<path d="M52.9685 23.5375C52.8968 23.9973 52.6454 24.4169 52.2618 24.717C51.8782 25.0172 51.389 25.177 50.8866 25.1663C50.6559 25.1886 50.4227 25.1586 50.2073 25.0789C49.9918 24.9993 49.8006 24.8723 49.6501 24.709C49.4996 24.5457 49.3944 24.3511 49.3435 24.1418C49.2927 23.9325 49.2976 23.7149 49.3581 23.5078C49.4285 23.0487 49.6771 22.629 50.0576 22.3269C50.438 22.0249 50.9243 21.861 51.4258 21.866C51.6553 21.8546 51.8846 21.8904 52.0974 21.9707C52.3101 22.0511 52.501 22.1739 52.6563 22.3305C52.8004 22.4985 52.9031 22.6936 52.957 22.9021C53.0109 23.1106 53.0148 23.3274 52.9685 23.5375V23.5375ZM55.5405 20.2173H53.6964C53.6199 20.2172 53.5459 20.2424 53.4878 20.2883C53.4297 20.3343 53.3914 20.398 53.3797 20.4679L53.2981 20.945L53.1685 20.7721C52.769 20.2361 51.8788 20.0569 50.9897 20.0569C48.9507 20.0569 47.2098 21.4847 46.8706 23.4875C46.7735 23.9442 46.7846 24.415 46.9032 24.8674C47.0217 25.3198 47.2449 25.743 47.5574 26.108C48.1208 26.7206 48.9242 26.9758 49.8815 26.9758C50.3563 26.9802 50.8273 26.896 51.2661 26.7282C51.705 26.5604 52.1027 26.3124 52.4355 25.9992L52.3532 26.4732C52.3459 26.5157 52.3486 26.5591 52.3612 26.6005C52.3738 26.6419 52.396 26.6803 52.4262 26.713C52.4564 26.7457 52.494 26.7719 52.5362 26.7899C52.5785 26.8078 52.6245 26.8171 52.671 26.817H54.3325C54.46 26.8169 54.5834 26.7748 54.6803 26.6981C54.7771 26.6214 54.8412 26.5152 54.861 26.3987L55.8588 20.5601C55.8659 20.5176 55.8629 20.4743 55.8502 20.433C55.8374 20.3918 55.8151 20.3536 55.7849 20.321C55.7546 20.2884 55.7171 20.2623 55.6749 20.2444C55.6328 20.2265 55.5869 20.2173 55.5405 20.2173V20.2173Z" fill="white"/>
<path d="M57.7151 17.172L56.1336 26.474C56.1263 26.5163 56.1291 26.5596 56.1417 26.6008C56.1543 26.6421 56.1764 26.6803 56.2065 26.7129C56.2366 26.7454 56.2739 26.7716 56.316 26.7895C56.3581 26.8075 56.4039 26.8167 56.4502 26.8167H58.0402C58.1679 26.8169 58.2914 26.7749 58.3885 26.6982C58.4855 26.6214 58.5496 26.5151 58.5692 26.3985L60.1288 17.2642C60.136 17.2218 60.1333 17.1785 60.1207 17.1373C60.1082 17.096 60.0861 17.0577 60.056 17.0251C60.0259 16.9925 59.9885 16.9663 59.9464 16.9483C59.9043 16.9303 59.8585 16.921 59.8121 16.9209H58.0317C57.9553 16.9212 57.8815 16.9466 57.8235 16.9926C57.7655 17.0386 57.727 17.1022 57.7151 17.172V17.172Z" fill="white"/>
</svg>