<svg width="94" height="18" viewBox="0 0 94 18" fill="none" xmlns="http://www.w3.org/2000/svg">
<g clip-path="url(#clip0)">
<path d="M46.5 0L48.6329 6.56434H55.535L49.9511 10.6213L52.084 17.1857L46.5 13.1287L40.916 17.1857L43.0489 10.6213L37.465 6.56434H44.3671L46.5 0Z" fill="#F4C625"/>
<path d="M28.5 0L30.6329 6.56434H37.535L31.9511 10.6213L34.084 17.1857L28.5 13.1287L22.916 17.1857L25.0489 10.6213L19.465 6.56434H26.3671L28.5 0Z" fill="#F4C625"/>
<path d="M10.5 0L12.6329 6.56434H19.535L13.9511 10.6213L16.084 17.1857L10.5 13.1287L4.91604 17.1857L7.04892 10.6213L1.46496 6.56434H8.36712L10.5 0Z" fill="#F4C625"/>
<path d="M65.5 0L67.6329 6.56434H74.535L68.9511 10.6213L71.084 17.1857L65.5 13.1287L59.916 17.1857L62.0489 10.6213L56.465 6.56434H63.3671L65.5 0Z" fill="#F4C625"/>
<path d="M83.5 0L85.6329 6.56434H92.535L86.9511 10.6213L89.084 17.1857L83.5 13.1287L77.916 17.1857L80.0489 10.6213L74.465 6.56434H81.3671L83.5 0Z" fill="#F4C625"/>
</g>
<defs>
<clipPath id="clip0">
<rect width="94" height="18"/>
</clipPath>
</defs>
</svg>