<svg width="173" height="58" viewBox="0 0 173 58" fill="none" xmlns="http://www.w3.org/2000/svg">
<path d="M30.052 25.4426C30.052 28.7044 28.6885 31.2136 25.9435 32.9699C23.1986 34.7263 19.2695 35.6045 14.1383 35.6045C10.5501 35.6045 7.46428 35.1403 4.82695 34.2245C2.20756 33.3087 0.539046 31.753 0.539046 31.753C-0.232417 31.0003 -0.178597 29.8712 0.718454 29.2063L3.58903 26.948C4.48608 26.2831 5.74195 26.3584 6.38782 27.1111C6.38782 27.1111 6.97988 27.8262 8.72016 28.579C10.3887 29.3317 12.2366 29.7081 14.2101 29.7081C16.2374 29.7081 17.7265 29.3693 18.7492 28.7421C19.7718 28.0771 20.2921 27.1488 20.2921 25.8942C20.2921 24.8027 19.5745 23.7991 18.2109 22.9209C16.8474 22.0427 14.3895 20.9136 10.8731 19.5712C7.05164 18.0657 4.30667 16.5602 2.76374 15.0171C1.22081 13.474 0.377584 11.6674 0.377584 9.58487C0.377584 6.66174 1.7411 4.3157 4.48608 2.59695C7.23105 0.878196 10.9269 0 15.6454 0C18.5159 0 21.0097 0.37637 23.1627 1.12911C25.3156 1.88185 27.0379 3.22423 27.0379 3.22423C27.8812 3.88915 27.8812 5.01826 26.9841 5.69572L24.3647 7.70302C23.4677 8.36794 22.158 8.33031 21.3865 7.57757C21.3865 7.57757 21.1533 7.32665 19.7718 6.78719C18.4083 6.19755 16.973 5.909 15.5377 5.909C13.8692 5.909 12.4878 6.19755 11.5369 6.82483C10.5143 7.45211 10.0478 8.20485 10.0478 9.08304C10.0478 10.8771 15.0533 13.4364 15.0533 13.4364C16.1298 13.9758 17.3139 14.5279 17.7445 14.6909C18.1571 14.854 19.8256 15.5691 20.9739 16.0333C20.9739 16.0333 25.9256 18.2915 27.5941 19.8347C29.155 21.3903 30.052 23.2722 30.052 25.4426Z" fill="#E5E5E5"/>
<path d="M30.052 25.4426C30.052 28.7044 28.6885 31.2136 25.9435 32.9699C23.1986 34.7263 19.2695 35.6045 14.1383 35.6045C10.5501 35.6045 7.46428 35.1403 4.82695 34.2245C2.20756 33.3087 0.539046 31.753 0.539046 31.753C-0.232417 31.0003 -0.178597 29.8712 0.718454 29.2063L3.58903 26.948C4.48608 26.2831 5.74195 26.3584 6.38782 27.1111C6.38782 27.1111 6.97988 27.8262 8.72016 28.579C10.3887 29.3317 12.2366 29.7081 14.2101 29.7081C16.2374 29.7081 17.7265 29.3693 18.7492 28.7421C19.7718 28.0771 20.2921 27.1488 20.2921 25.8942C20.2921 24.8027 19.5745 23.7991 18.2109 22.9209C16.8474 22.0427 14.3895 20.9136 10.8731 19.5712C7.05164 18.0657 4.30667 16.5602 2.76374 15.0171C1.22081 13.474 0.377584 11.6674 0.377584 9.58487C0.377584 6.66174 1.7411 4.3157 4.48608 2.59695C7.23105 0.878196 10.9269 0 15.6454 0C18.5159 0 21.0097 0.37637 23.1627 1.12911C25.3156 1.88185 27.0379 3.22423 27.0379 3.22423C27.8812 3.88915 27.8812 5.01826 26.9841 5.69572L24.3647 7.70302C23.4677 8.36794 22.158 8.33031 21.3865 7.57757C21.3865 7.57757 21.1533 7.32665 19.7718 6.78719C18.4083 6.19755 16.973 5.909 15.5377 5.909C13.8692 5.909 12.4878 6.19755 11.5369 6.82483C10.5143 7.45211 10.0478 8.20485 10.0478 9.08304C10.0478 10.8771 15.0533 13.4364 15.0533 13.4364C16.1298 13.9758 17.3139 14.5279 17.7445 14.6909C18.1571 14.854 19.8256 15.5691 20.9739 16.0333C20.9739 16.0333 25.9256 18.2915 27.5941 19.8347C29.155 21.3903 30.052 23.2722 30.052 25.4426Z" fill="url(#paint0_linear)"/>
<path d="M44.9072 33.2213C44.9072 34.1371 43.8307 34.8898 42.521 34.8898H37.7487C36.439 34.8898 35.3625 34.1371 35.3625 33.2213V2.359C35.3625 1.44317 36.439 0.69043 37.7487 0.69043H42.521C43.8307 0.69043 44.9072 1.44317 44.9072 2.359V33.2213Z" fill="#E5E5E5"/>
<path d="M44.9072 33.2213C44.9072 34.1371 43.8307 34.8898 42.521 34.8898H37.7487C36.439 34.8898 35.3625 34.1371 35.3625 33.2213V2.359C35.3625 1.44317 36.439 0.69043 37.7487 0.69043H42.521C43.8307 0.69043 44.9072 1.44317 44.9072 2.359V33.2213Z" fill="url(#paint1_linear)"/>
<path d="M94.0656 33.2211C94.0656 34.137 92.9891 34.8897 91.6794 34.8897H87.0865C85.7768 34.8897 84.1083 34.2624 83.3907 33.5097L63.3506 13.1857C62.6329 12.433 61.987 12.5585 61.987 13.4743V33.2086C61.987 34.1244 60.9106 34.8771 59.6009 34.8771H55.008C53.6983 34.8771 52.6218 34.1244 52.6218 33.2086V2.34631C52.6218 1.43047 53.6983 0.677734 55.008 0.677734H59.6009C60.9106 0.677734 62.5791 1.30502 63.2967 2.05776L83.283 22.2939C84.0007 23.0466 84.6465 22.9212 84.6465 22.0053V2.35885C84.6465 1.44302 85.723 0.69028 87.0327 0.69028H91.6256C92.9353 0.69028 94.0117 1.44302 94.0117 2.35885V33.2211H94.0656Z" fill="#E5E5E5"/>
<path d="M94.0656 33.2211C94.0656 34.137 92.9891 34.8897 91.6794 34.8897H87.0865C85.7768 34.8897 84.1083 34.2624 83.3907 33.5097L63.3506 13.1857C62.6329 12.433 61.987 12.5585 61.987 13.4743V33.2086C61.987 34.1244 60.9106 34.8771 59.6009 34.8771H55.008C53.6983 34.8771 52.6218 34.1244 52.6218 33.2086V2.34631C52.6218 1.43047 53.6983 0.677734 55.008 0.677734H59.6009C60.9106 0.677734 62.5791 1.30502 63.2967 2.05776L83.283 22.2939C84.0007 23.0466 84.6465 22.9212 84.6465 22.0053V2.35885C84.6465 1.44302 85.723 0.69028 87.0327 0.69028H91.6256C92.9353 0.69028 94.0117 1.44302 94.0117 2.35885V33.2211H94.0656Z" fill="url(#paint2_linear)"/>
<path d="M137.016 19.9224C137.016 20.8383 136.891 22.3061 136.711 23.2219C136.711 23.2219 135.527 29.5826 132.423 31.9663C129.373 34.3876 124.96 35.5669 119.237 35.5669C113.567 35.5669 109.208 34.3123 106.104 31.8408C103 29.3693 101.744 23.1843 101.744 23.1843C101.565 22.2685 101.439 20.8006 101.439 19.8848V2.32091C101.439 1.40508 102.516 0.652344 103.825 0.652344H108.903C110.212 0.652344 111.289 1.40508 111.289 2.32091V21.0516C111.289 21.9674 111.414 23.4352 111.594 24.3511C111.594 24.3511 112.006 26.5716 113.316 27.7007C114.68 28.8298 116.653 29.4195 119.219 29.4195C121.91 29.4195 123.937 28.88 125.247 27.7509C126.557 26.6595 126.915 24.3636 126.915 24.3636C127.095 23.4478 127.22 21.9799 127.22 21.0641V2.3711C127.22 1.45526 128.297 0.702526 129.607 0.702526H134.684C135.994 0.702526 137.07 1.45526 137.07 2.3711V19.935H137.016V19.9224Z" fill="#E5E5E5"/>
<path d="M137.016 19.9224C137.016 20.8383 136.891 22.3061 136.711 23.2219C136.711 23.2219 135.527 29.5826 132.423 31.9663C129.373 34.3876 124.96 35.5669 119.237 35.5669C113.567 35.5669 109.208 34.3123 106.104 31.8408C103 29.3693 101.744 23.1843 101.744 23.1843C101.565 22.2685 101.439 20.8006 101.439 19.8848V2.32091C101.439 1.40508 102.516 0.652344 103.825 0.652344H108.903C110.212 0.652344 111.289 1.40508 111.289 2.32091V21.0516C111.289 21.9674 111.414 23.4352 111.594 24.3511C111.594 24.3511 112.006 26.5716 113.316 27.7007C114.68 28.8298 116.653 29.4195 119.219 29.4195C121.91 29.4195 123.937 28.88 125.247 27.7509C126.557 26.6595 126.915 24.3636 126.915 24.3636C127.095 23.4478 127.22 21.9799 127.22 21.0641V2.3711C127.22 1.45526 128.297 0.702526 129.607 0.702526H134.684C135.994 0.702526 137.07 1.45526 137.07 2.3711V19.935H137.016V19.9224Z" fill="url(#paint3_linear)"/>
<path d="M172.288 25.4426C172.288 28.7044 170.925 31.2136 168.18 32.9699C165.435 34.7263 161.488 35.6045 156.375 35.6045C152.786 35.6045 149.683 35.1403 147.063 34.2245C144.444 33.3087 142.775 31.753 142.775 31.753C142.004 31.0003 142.058 29.8712 142.955 29.2063L145.825 26.948C146.722 26.2831 147.978 26.3584 148.624 27.1111C148.624 27.1111 149.216 27.8262 150.956 28.579C152.625 29.3317 154.473 29.7081 156.446 29.7081C158.474 29.7081 159.963 29.3693 160.986 28.7421C162.008 28.0771 162.546 27.1488 162.546 25.8942C162.546 24.8027 161.829 23.7991 160.465 22.9209C159.102 22.0427 156.644 20.9136 153.127 19.5712C149.306 18.0657 146.561 16.5602 145.018 15.0171C143.475 13.474 142.632 11.6674 142.632 9.58487C142.632 6.66174 143.995 4.3157 146.74 2.59695C149.485 0.878196 153.181 0 157.9 0C160.77 0 163.264 0.37637 165.417 1.12911C167.57 1.88185 169.292 3.22423 169.292 3.22423C170.135 3.88915 170.135 5.01826 169.238 5.69572L166.619 7.70302C165.722 8.36794 164.412 8.33031 163.641 7.57757C163.641 7.57757 163.408 7.32665 162.026 6.78719C160.663 6.19755 159.227 5.909 157.792 5.909C156.123 5.909 154.742 6.19755 153.791 6.82483C152.786 7.45211 152.302 8.20485 152.302 9.08304C152.302 10.8771 157.308 13.4364 157.308 13.4364C158.384 13.9758 159.568 14.5279 159.999 14.6909C160.411 14.854 162.08 15.5691 163.228 16.0333C163.228 16.0333 168.18 18.2915 169.848 19.8347C171.445 21.3903 172.288 23.2722 172.288 25.4426Z" fill="#E5E5E5"/>
<path d="M172.288 25.4426C172.288 28.7044 170.925 31.2136 168.18 32.9699C165.435 34.7263 161.488 35.6045 156.375 35.6045C152.786 35.6045 149.683 35.1403 147.063 34.2245C144.444 33.3087 142.775 31.753 142.775 31.753C142.004 31.0003 142.058 29.8712 142.955 29.2063L145.825 26.948C146.722 26.2831 147.978 26.3584 148.624 27.1111C148.624 27.1111 149.216 27.8262 150.956 28.579C152.625 29.3317 154.473 29.7081 156.446 29.7081C158.474 29.7081 159.963 29.3693 160.986 28.7421C162.008 28.0771 162.546 27.1488 162.546 25.8942C162.546 24.8027 161.829 23.7991 160.465 22.9209C159.102 22.0427 156.644 20.9136 153.127 19.5712C149.306 18.0657 146.561 16.5602 145.018 15.0171C143.475 13.474 142.632 11.6674 142.632 9.58487C142.632 6.66174 143.995 4.3157 146.74 2.59695C149.485 0.878196 153.181 0 157.9 0C160.77 0 163.264 0.37637 165.417 1.12911C167.57 1.88185 169.292 3.22423 169.292 3.22423C170.135 3.88915 170.135 5.01826 169.238 5.69572L166.619 7.70302C165.722 8.36794 164.412 8.33031 163.641 7.57757C163.641 7.57757 163.408 7.32665 162.026 6.78719C160.663 6.19755 159.227 5.909 157.792 5.909C156.123 5.909 154.742 6.19755 153.791 6.82483C152.786 7.45211 152.302 8.20485 152.302 9.08304C152.302 10.8771 157.308 13.4364 157.308 13.4364C158.384 13.9758 159.568 14.5279 159.999 14.6909C160.411 14.854 162.08 15.5691 163.228 16.0333C163.228 16.0333 168.18 18.2915 169.848 19.8347C171.445 21.3903 172.288 23.2722 172.288 25.4426Z" fill="url(#paint4_linear)"/>
<path d="M29.7356 55.047C29.7356 55.7621 29.3588 56.3141 28.6233 56.703C27.8877 57.1045 26.883 57.2927 25.6271 57.2927C24.2636 57.2927 23.2051 57.1672 22.4695 56.9288V56.0256C22.9359 56.1636 23.4562 56.2765 24.0124 56.3517C24.5686 56.427 25.1248 56.4772 25.663 56.4772C26.56 56.4772 27.2239 56.3643 27.6724 56.1259C28.1209 55.8876 28.3541 55.5614 28.3541 55.1348C28.3541 54.8588 28.2644 54.633 28.103 54.4574C27.9415 54.2817 27.6724 54.1061 27.2956 53.9555C26.9189 53.805 26.3447 53.6293 25.5912 53.4412C24.5148 53.1777 23.7433 52.8515 23.2948 52.4877C22.8462 52.1239 22.613 51.6346 22.613 51.0449C22.613 50.4177 22.9539 49.9284 23.6177 49.5646C24.2815 49.2007 25.1606 49.0125 26.273 49.0125C27.4212 49.0125 28.4797 49.1631 29.4306 49.4516L29.018 50.2671C28.0671 49.9911 27.1341 49.8531 26.2371 49.8531C25.5195 49.8531 24.9812 49.966 24.5686 50.1667C24.1739 50.38 23.9765 50.6811 23.9765 51.0575C23.9765 51.3335 24.0483 51.5719 24.1918 51.7475C24.3353 51.9231 24.5865 52.0862 24.9274 52.2368C25.2862 52.3873 25.8245 52.5504 26.5421 52.7261C27.7441 53.0272 28.5874 53.3533 29.0359 53.6921C29.5024 54.0433 29.7356 54.495 29.7356 55.047ZM43.6399 57.1923H42.0611L37.8629 53.2781L36.6608 54.0308V57.1923H35.3153V49.138H36.6608V53.1401L41.8817 49.138H43.4605L38.8317 52.6382L43.6399 57.1923ZM55.7142 57.1923L54.2789 54.633H49.6501L48.2328 57.1923H46.8693L51.4263 49.1004H52.5566L57.0956 57.1923H55.7142ZM53.8483 53.7799L52.5027 51.2833C52.3233 50.9697 52.1439 50.5807 51.9645 50.1166C51.8569 50.4678 51.6775 50.8568 51.4622 51.2833L50.0986 53.7799H53.8483ZM65.4561 57.1923H64.1106V49.966H60.4685V49.138H69.1161V49.966H65.4741V57.1923H65.4561ZM80.5087 57.1923H74.0858V49.138H80.5087V49.966H75.4314V52.563H80.2037V53.391H75.4314V56.3517H80.5087V57.1923ZM86.3036 49.1255H89.5689C91.0939 49.1255 92.2062 49.2885 92.888 49.6022C93.5697 49.9158 93.9106 50.4302 93.9106 51.1202C93.9106 51.5969 93.7132 51.9984 93.3365 52.2995C92.9597 52.6131 92.4036 52.8139 91.668 52.9017V52.9519C93.4082 53.1652 94.2874 53.805 94.2874 54.8839C94.2874 55.599 93.9465 56.1636 93.2468 56.565C92.5471 56.9665 91.5783 57.1672 90.3224 57.1672H86.3036V49.1255V49.1255ZM87.6312 52.5755H89.838C90.7889 52.5755 91.4706 52.4751 91.8833 52.2619C92.2959 52.0486 92.5112 51.6973 92.5112 51.208C92.5112 50.7564 92.278 50.4302 91.8115 50.2295C91.345 50.0287 90.6094 49.9284 89.6048 49.9284H87.6312V52.5755ZM87.6312 53.3784V56.3894H90.0353C90.9683 56.3894 91.668 56.2639 92.1344 56.013C92.6009 55.7621 92.8341 55.3606 92.8341 54.8337C92.8341 54.3319 92.6009 53.9681 92.1165 53.7297C91.6321 53.4913 90.9144 53.3784 89.9277 53.3784H87.6312ZM110.004 53.1526C110.004 54.4448 109.537 55.461 108.604 56.2012C107.671 56.9414 106.38 57.3052 104.711 57.3052C103.007 57.3052 101.697 56.9414 100.782 56.2137C99.867 55.4861 99.4005 54.4574 99.4005 53.1401C99.4005 51.8228 99.867 50.8066 100.782 50.0915C101.697 49.3638 103.025 49 104.729 49C106.38 49 107.671 49.3638 108.604 50.104C109.537 50.8442 110.004 51.8479 110.004 53.1526ZM100.818 53.1526C100.818 54.2441 101.141 55.0721 101.805 55.6366C102.468 56.2012 103.437 56.4772 104.711 56.4772C105.985 56.4772 106.954 56.2012 107.6 55.6366C108.245 55.0721 108.568 54.2441 108.568 53.1526C108.568 52.0737 108.245 51.2457 107.6 50.6937C106.954 50.1291 105.985 49.8531 104.729 49.8531C103.455 49.8531 102.486 50.1417 101.805 50.7062C101.141 51.2457 100.818 52.0737 100.818 53.1526ZM123.047 57.1923L121.612 54.633H116.983L115.565 57.1923H114.202L118.759 49.1004H119.889L124.428 57.1923H123.047ZM121.199 53.7799L119.871 51.2833C119.692 50.9697 119.512 50.5807 119.333 50.1166C119.207 50.4678 119.046 50.8568 118.831 51.2833L117.467 53.7799H121.199ZM130.6 53.8426V57.1923H129.254V49.138H132.412C133.829 49.138 134.87 49.3262 135.534 49.7026C136.216 50.0789 136.556 50.656 136.556 51.4088C136.556 52.4751 135.785 53.1902 134.242 53.5666L137.364 57.1923H135.785L133.004 53.8426H130.6ZM130.6 53.0271H132.43C133.381 53.0271 134.063 52.9017 134.511 52.6382C134.96 52.3748 135.175 51.9733 135.175 51.4589C135.175 50.932 134.942 50.5431 134.493 50.3047C134.045 50.0664 133.327 49.9535 132.34 49.9535H130.6V53.0271V53.0271ZM151.663 53.0773C151.663 54.4072 151.142 55.4234 150.102 56.1259C149.079 56.8285 147.59 57.1798 145.652 57.1798H142.459V49.1255H145.993C147.787 49.1255 149.187 49.4767 150.174 50.1667C151.178 50.8693 151.663 51.8353 151.663 53.0773ZM150.245 53.115C150.245 52.0611 149.869 51.2708 149.115 50.7438C148.362 50.2169 147.249 49.9409 145.76 49.9409H143.805V56.3768H145.437C147.034 56.3768 148.236 56.1008 149.043 55.5614C149.851 55.0094 150.245 54.1939 150.245 53.115ZM163.988 55.047C163.988 55.7621 163.611 56.3141 162.876 56.703C162.14 57.1045 161.136 57.2927 159.88 57.2927C158.516 57.2927 157.458 57.1672 156.722 56.9288V56.0256C157.189 56.1636 157.709 56.2765 158.265 56.3517C158.821 56.427 159.377 56.4772 159.916 56.4772C160.813 56.4772 161.476 56.3643 161.925 56.1259C162.374 55.8876 162.607 55.5614 162.607 55.1348C162.607 54.8588 162.517 54.633 162.356 54.4574C162.194 54.2817 161.925 54.1061 161.548 53.9555C161.171 53.805 160.597 53.6293 159.844 53.4412C158.767 53.1777 157.996 52.8515 157.547 52.4877C157.099 52.1239 156.866 51.6346 156.866 51.0449C156.866 50.4177 157.206 49.9284 157.87 49.5646C158.534 49.2007 159.413 49.0125 160.526 49.0125C161.674 49.0125 162.732 49.1631 163.683 49.4516L163.271 50.2671C162.32 49.9911 161.387 49.8531 160.49 49.8531C159.772 49.8531 159.234 49.966 158.821 50.1667C158.426 50.38 158.229 50.6811 158.229 51.0575C158.229 51.3335 158.301 51.5719 158.444 51.7475C158.588 51.9231 158.839 52.0862 159.18 52.2368C159.539 52.3873 160.059 52.5504 160.795 52.7261C161.997 53.0272 162.84 53.3533 163.288 53.6921C163.755 54.0433 163.988 54.495 163.988 55.047Z" fill="#565353"/>
<defs>
<linearGradient id="paint0_linear" x1="15.026" y1="0" x2="15.026" y2="35.6045" gradientUnits="userSpaceOnUse">
<stop stop-color="#060606"/>
<stop offset="1" stop-color="white" stop-opacity="0"/>
</linearGradient>
<linearGradient id="paint1_linear" x1="40.1349" y1="0.69043" x2="40.1349" y2="34.8898" gradientUnits="userSpaceOnUse">
<stop stop-color="#060606"/>
<stop offset="1" stop-color="white" stop-opacity="0"/>
</linearGradient>
<linearGradient id="paint2_linear" x1="73.3437" y1="0.677734" x2="73.3437" y2="34.8897" gradientUnits="userSpaceOnUse">
<stop stop-color="#060606"/>
<stop offset="1" stop-color="white" stop-opacity="0"/>
</linearGradient>
<linearGradient id="paint3_linear" x1="119.255" y1="0.652344" x2="119.255" y2="35.5669" gradientUnits="userSpaceOnUse">
<stop stop-color="#060606"/>
<stop offset="1" stop-color="white" stop-opacity="0"/>
</linearGradient>
<linearGradient id="paint4_linear" x1="157.262" y1="0" x2="157.262" y2="35.6045" gradientUnits="userSpaceOnUse">
<stop stop-color="#060606"/>
<stop offset="1" stop-color="white" stop-opacity="0"/>
</linearGradient>
</defs>
</svg>