
<svg width="67" height="44" viewBox="0 0 67 44" fill="none" xmlns="http://www.w3.org/2000/svg">
<path d="M57.4865 0H9.23334C4.13391 0 0 3.82187 0 8.53638V34.9012C0 39.6158 4.13391 43.4376 9.23334 43.4376H57.4865C62.5859 43.4376 66.7198 39.6158 66.7198 34.9012V8.53638C66.7198 3.82187 62.5859 0 57.4865 0Z" fill="#0066B2"/>
<path d="M30.5281 28.5236H27.0531L29.2249 16.1831H32.7002L30.5281 28.5236Z" fill="white"/>
<path d="M24.1291 16.1831L20.8159 24.6707L20.424 22.843L20.4244 22.8436L19.2549 17.2946C19.2549 17.2946 19.1137 16.1831 17.6064 16.1831H12.1298L12.0656 16.392C13.3479 16.6885 14.5736 17.1643 15.7005 17.8029L18.7197 28.5235H22.3403L27.8693 16.1831H24.1291Z" fill="white"/>
<path d="M51.4627 28.5237H54.6535L51.8714 16.1832H49.0775C48.739 16.159 48.4011 16.2351 48.1126 16.4005C47.8241 16.5658 47.6001 16.8119 47.4732 17.1029L42.2908 28.5237H45.9129L46.6374 26.6908H51.0551L51.4627 28.5237ZM47.6388 24.1583L49.4648 19.5403L50.492 24.1583H47.6388Z" fill="white"/>
<path d="M42.5621 19.1507L43.0579 16.5003C42.0536 16.1685 40.9985 15.9869 39.9324 15.9623C38.2078 15.9623 34.1126 16.6595 34.1126 20.0475C34.1126 23.2359 38.9191 23.2756 38.9191 24.9496C38.9191 26.6236 34.6081 26.3244 33.1855 25.2684L32.6684 28.0387C33.9098 28.5194 35.2456 28.7568 36.5913 28.736C38.9624 28.736 42.5405 27.6003 42.5405 24.5112C42.5405 21.3027 37.6907 21.0039 37.6907 19.6091C37.6907 18.2139 41.075 18.3932 42.5621 19.1507Z" fill="white"/>
<path d="M20.4244 22.8436L19.2549 17.2946C19.2549 17.2946 19.1137 16.1831 17.6064 16.1831H12.1298L12.0656 16.392C13.9518 16.8361 15.7115 17.6529 17.2236 18.7861C18.6601 19.8529 19.7646 21.2531 20.4244 22.8436V22.8436Z" fill="#F9A533"/>
</svg>